<?xml version="1.0" encoding="utf-8"?>
<svg baseProfile="tiny" height="238" version="1.2" width="260"
     xmlns="http://www.w3.org/2000/svg"
     xmlns:ev="http://www.w3.org/2001/xml-events"
     xmlns:xlink="http://www.w3.org/1999/xlink">
  <defs/>

  <!-- Original blue shape -->
  <path d="M 54,55 L 53,56 L 49,56 L 48,57 L 46,57 L 45,58 L 44,58 L 43,59 L 42,59 L 34,67 L 34,68 L 33,69 L 33,70 L 32,71 L 32,73 L 31,74 L 31,172 L 32,173 L 32,175 L 33,176 L 33,178 L 35,180 L 35,181 L 41,187 L 42,187 L 43,188 L 44,188 L 45,189 L 46,189 L 47,190 L 49,190 L 50,191 L 67,191 L 68,192 L 68,225 L 71,228 L 76,228 L 77,227 L 78,227 L 81,224 L 82,224 L 87,219 L 88,219 L 94,213 L 95,213 L 100,208 L 101,208 L 105,204 L 106,204 L 111,199 L 112,199 L 118,193 L 119,193 L 121,191 L 184,191 L 185,190 L 187,190 L 188,189 L 190,189 L 192,187 L 193,187 L 200,180 L 200,179 L 201,178 L 201,177 L 202,176 L 202,174 L 203,173 L 203,169 L 204,168 L 204,138 L 203,137 L 202,137 L 201,138 L 199,138 L 198,139 L 196,139 L 195,140 L 192,140 L 191,141 L 186,141 L 185,142 L 173,142 L 172,141 L 167,141 L 166,140 L 162,140 L 161,139 L 159,139 L 158,138 L 157,138 L 156,137 L 154,137 L 153,136 L 152,136 L 151,135 L 150,135 L 149,134 L 148,134 L 146,132 L 145,132 L 143,130 L 142,130 L 130,118 L 130,117 L 127,114 L 127,113 L 125,111 L 125,110 L 124,109 L 124,108 L 123,107 L 123,106 L 122,105 L 122,103 L 121,102 L 121,100 L 120,99 L 120,98 L 119,97 L 119,93 L 118,92 L 118,88 L 117,87 L 117,74 L 118,73 L 118,68 L 119,67 L 119,64 L 120,63 L 120,61 L 121,60 L 121,58 L 122,57 L 122,55 Z" fill="#2177ea" />

  <!-- Notification badge in the hollow -->
  <circle cx="189" cy="153" r="14" fill="red" />
  <text x="189" y="158" font-size="16" font-family="Arial"
        fill="white" text-anchor="middle" font-weight="bold">2</text>
</svg>
