<?xml version="1.0" encoding="utf-8" ?>
<svg baseProfile="tiny" height="280" version="1.2" width="260" xmlns="http://www.w3.org/2000/svg" xmlns:ev="http://www.w3.org/2001/xml-events" xmlns:xlink="http://www.w3.org/1999/xlink"><defs /><path d="M 144,270 L 144,271 L 146,271 L 146,270 Z" fill="black" /><path d="M 122,269 L 121,270 L 121,273 L 122,274 L 125,274 L 126,273 L 127,274 L 130,274 L 131,273 L 132,274 L 133,274 L 133,271 L 134,270 L 135,270 L 136,271 L 136,274 L 137,274 L 137,271 L 138,270 L 139,271 L 139,274 L 140,274 L 140,270 L 139,269 L 132,269 L 131,270 L 130,269 L 127,269 L 126,270 L 125,269 Z" fill="black" /><path d="M 186,267 L 189,267 L 190,268 L 190,269 L 189,270 L 189,271 L 188,272 L 188,273 L 187,274 L 188,274 L 189,273 L 189,272 L 190,271 L 190,270 L 191,269 L 193,269 L 194,268 L 195,268 L 196,269 L 196,270 L 192,274 L 203,274 L 201,274 L 200,273 L 203,270 L 203,268 L 202,267 L 199,267 L 198,268 L 197,268 L 196,267 L 193,267 L 192,268 L 191,267 Z" fill="black" /><path d="M 183,267 L 181,269 L 181,270 L 180,271 L 180,272 L 183,272 L 184,273 L 184,274 L 184,273 L 185,272 L 184,271 L 184,267 Z" fill="black" /><path d="M 153,267 L 151,269 L 151,270 L 150,271 L 150,273 L 151,274 L 155,274 L 156,273 L 157,274 L 160,274 L 161,273 L 162,273 L 163,274 L 166,274 L 167,273 L 167,271 L 168,270 L 169,271 L 170,271 L 171,272 L 169,274 L 171,274 L 171,273 L 173,271 L 173,268 L 174,267 L 177,267 L 178,268 L 178,269 L 177,270 L 177,271 L 175,273 L 175,274 L 176,274 L 177,273 L 177,272 L 178,271 L 178,270 L 179,269 L 179,267 L 174,267 L 173,268 L 172,267 L 169,267 L 168,268 L 167,268 L 166,267 L 163,267 L 162,268 L 162,269 L 161,270 L 160,270 L 159,269 L 159,268 L 160,267 L 159,267 L 157,269 L 157,270 L 156,271 L 155,270 L 154,270 L 153,269 L 153,268 L 154,267 Z" fill="black" /><path d="M 112,266 L 112,268 L 111,269 L 108,269 L 107,270 L 106,270 L 105,269 L 102,269 L 101,270 L 99,268 L 99,267 L 98,267 L 98,268 L 97,269 L 98,270 L 98,274 L 100,274 L 101,273 L 102,274 L 105,274 L 106,273 L 107,273 L 108,274 L 113,274 L 113,273 L 114,272 L 116,274 L 119,274 L 117,274 L 116,273 L 116,272 L 115,271 L 117,269 L 115,269 L 114,270 L 113,269 L 113,266 Z" fill="black" /><path d="M 62,266 L 62,268 L 61,269 L 57,269 L 57,271 L 58,272 L 57,273 L 57,274 L 60,274 L 61,273 L 62,274 L 63,274 L 63,271 L 64,270 L 65,270 L 66,271 L 66,274 L 67,274 L 68,273 L 69,274 L 73,274 L 73,270 L 74,269 L 75,270 L 75,274 L 77,274 L 77,273 L 76,272 L 76,270 L 77,269 L 78,269 L 79,270 L 79,274 L 81,274 L 82,273 L 83,274 L 86,274 L 87,273 L 88,274 L 89,274 L 89,271 L 91,269 L 92,270 L 92,271 L 93,271 L 94,272 L 93,273 L 92,273 L 92,274 L 95,274 L 96,273 L 96,272 L 95,271 L 95,269 L 88,269 L 87,270 L 86,269 L 83,269 L 82,270 L 80,268 L 80,267 L 79,267 L 79,268 L 78,269 L 77,269 L 76,268 L 76,267 L 75,267 L 75,268 L 74,269 L 72,269 L 72,272 L 71,273 L 70,273 L 69,272 L 69,269 L 68,269 L 67,270 L 66,269 L 64,269 L 63,268 L 63,266 Z" fill="black" /><path d="M 54,55 L 53,56 L 49,56 L 48,57 L 46,57 L 45,58 L 44,58 L 43,59 L 42,59 L 34,67 L 34,68 L 33,69 L 33,70 L 32,71 L 32,73 L 31,74 L 31,172 L 32,173 L 32,175 L 33,176 L 33,178 L 35,180 L 35,181 L 41,187 L 42,187 L 43,188 L 44,188 L 45,189 L 46,189 L 47,190 L 49,190 L 50,191 L 67,191 L 68,192 L 68,225 L 71,228 L 76,228 L 77,227 L 78,227 L 81,224 L 82,224 L 87,219 L 88,219 L 94,213 L 95,213 L 100,208 L 101,208 L 105,204 L 106,204 L 111,199 L 112,199 L 118,193 L 119,193 L 121,191 L 184,191 L 185,190 L 187,190 L 188,189 L 190,189 L 192,187 L 193,187 L 200,180 L 200,179 L 201,178 L 201,177 L 202,176 L 202,174 L 203,173 L 203,169 L 204,168 L 204,138 L 203,137 L 202,137 L 201,138 L 199,138 L 198,139 L 196,139 L 195,140 L 192,140 L 191,141 L 186,141 L 185,142 L 173,142 L 172,141 L 167,141 L 166,140 L 162,140 L 161,139 L 159,139 L 158,138 L 157,138 L 156,137 L 154,137 L 153,136 L 152,136 L 151,135 L 150,135 L 149,134 L 148,134 L 146,132 L 145,132 L 143,130 L 142,130 L 130,118 L 130,117 L 127,114 L 127,113 L 125,111 L 125,110 L 124,109 L 124,108 L 123,107 L 123,106 L 122,105 L 122,103 L 121,102 L 121,100 L 120,99 L 120,98 L 119,97 L 119,93 L 118,92 L 118,88 L 117,87 L 117,74 L 118,73 L 118,68 L 119,67 L 119,64 L 120,63 L 120,61 L 121,60 L 121,58 L 122,57 L 122,55 Z" fill="black" /><path d="M 170,31 L 169,32 L 165,32 L 164,33 L 163,33 L 162,34 L 160,34 L 159,35 L 158,35 L 157,36 L 156,36 L 155,37 L 154,37 L 153,38 L 152,38 L 149,41 L 148,41 L 140,49 L 140,50 L 137,53 L 137,54 L 136,55 L 136,56 L 135,57 L 135,58 L 134,59 L 134,60 L 133,61 L 133,62 L 132,63 L 132,65 L 131,66 L 131,69 L 130,70 L 130,77 L 129,78 L 129,83 L 130,84 L 130,90 L 131,91 L 131,94 L 132,95 L 132,97 L 133,98 L 133,99 L 134,100 L 134,102 L 136,104 L 136,105 L 137,106 L 137,107 L 138,108 L 138,109 L 146,117 L 146,118 L 147,118 L 149,120 L 150,120 L 152,122 L 153,122 L 154,123 L 155,123 L 157,125 L 158,125 L 159,126 L 161,126 L 162,127 L 164,127 L 165,128 L 167,128 L 168,129 L 178,129 L 179,130 L 180,130 L 181,129 L 189,129 L 190,128 L 193,128 L 194,127 L 196,127 L 197,126 L 198,126 L 199,125 L 201,125 L 203,123 L 204,123 L 205,122 L 206,122 L 208,120 L 209,120 L 218,111 L 218,110 L 221,107 L 221,106 L 222,105 L 222,104 L 223,103 L 223,102 L 224,101 L 224,100 L 225,99 L 225,97 L 226,96 L 226,94 L 227,93 L 227,90 L 228,89 L 228,72 L 227,71 L 227,67 L 226,66 L 226,64 L 225,63 L 225,61 L 224,60 L 224,59 L 223,58 L 223,57 L 222,56 L 222,55 L 220,53 L 220,52 L 217,49 L 217,48 L 211,42 L 210,42 L 207,39 L 206,39 L 204,37 L 203,37 L 202,36 L 201,36 L 200,35 L 199,35 L 198,34 L 196,34 L 195,33 L 193,33 L 192,32 L 189,32 L 188,31 Z" fill="black" /></svg>